<svg xmlns="http://www.w3.org/2000/svg" viewBox="0 0 240.5 50"><defs><style>.cls-1{fill:#384655;}.cls-2{fill:#fff;}.cls-3{fill:#00aeff;}.cls-4{isolation:isolate;}</style></defs><title>Layer 2</title><g id="Layer_2" data-name="Layer 2"><g id="Layer_1-2" data-name="Layer 1"><g id="Layer_2-2" data-name="Layer 2"><g id="Layer_1-2-2" data-name="Layer 1-2"><rect class="cls-1" width="160.9" height="50"/><path class="cls-2" d="M80.84,17.68a32.63,32.63,0,0,1,5.22-.43c6.1,0,7.19,2.79,7.19,8.35s-1.09,8.34-7.19,8.34a32.62,32.62,0,0,1-5.22-.42ZM83.7,31.51a13.39,13.39,0,0,0,1.9.14c4.75,0,4.78-2.62,4.78-6s0-6-4.78-6a13.39,13.39,0,0,0-1.9.14Z"/><path class="cls-2" d="M101.37,33.94c-4.09,0-5.57-1.74-5.57-6.42s1.48-6.41,5.57-6.41,5.56,1.81,5.56,6.41S105.46,33.94,101.37,33.94Zm0-2.11c2.26,0,2.89-1,2.89-4.31s-.63-4.29-2.89-4.29-2.88.85-2.88,4.29S99.11,31.83,101.37,31.83Z"/><path class="cls-2" d="M117.84,23.51a12.14,12.14,0,0,0-2.17-.26c-3.29,0-3.6.91-3.6,4.15,0,3.07.13,4.35,3.62,4.35a11.19,11.19,0,0,0,2.15-.27l.23,2a16.31,16.31,0,0,1-3.88.43c-4.17,0-4.83-3.15-4.83-6.54,0-4.09.94-6.29,5.52-6.29a11.33,11.33,0,0,1,3.17.43Z"/><path class="cls-2" d="M126.69,30.36c0-1.43-1.28-1.55-2.45-1.91-2-.61-3.91-1.12-3.91-3.81s1.93-3.53,4.41-3.53a18.48,18.48,0,0,1,4.44.48l-.25,2a17.33,17.33,0,0,0-3.13-.34c-1,0-2.81,0-2.81,1.28s1.51,1.54,2.55,1.9c2.14.72,3.86,1.12,3.86,3.87S127.27,34,124.53,34a19.08,19.08,0,0,1-4.32-.49l.26-2a20.67,20.67,0,0,0,3.32.35C124.78,31.8,126.69,31.83,126.69,30.36Z"/><rect class="cls-3" width="49.73" height="50"/><path class="cls-2" d="M25,41.22a7.83,7.83,0,0,1-2.64-2.11,9.19,9.19,0,0,1-1.76-3.18,13.16,13.16,0,0,1-.71-3.88c0-8.11,6.7-12.34,6-20.45a3.73,3.73,0,0,0-.18-1.41c-.35-.35-.53-.71-.71-.88a7.77,7.77,0,0,1,2.65,2.11,9.19,9.19,0,0,1,1.76,3.18,13.84,13.84,0,0,1,.71,3.88c0,6.87-6.35,12-6.35,19.39a6.77,6.77,0,0,0,.35,1.94A2.43,2.43,0,0,0,25,41.22"/><path class="cls-2" d="M31,40.87a6.67,6.67,0,0,1-1.76-1.41,6.47,6.47,0,0,1-1.59-4.76c0-5.47,4.94-8.46,4.23-15.34a15.28,15.28,0,0,1,2.29,3.53c0,.7.18,1.58.18,2.46,0,4.59-4.23,8.12-4.23,13a2.75,2.75,0,0,0,.17,1.24A2.9,2.9,0,0,0,31,40.87"/><path class="cls-2" d="M18.51,31.7a6.67,6.67,0,0,1-1.76-1.41,6,6,0,0,1-1.24-2.11,12.51,12.51,0,0,1-.35-2.65c0-5.47,4.94-8.46,4.23-15.34a15.28,15.28,0,0,1,2.29,3.53A11.7,11.7,0,0,1,22,16.36c0,4.64-4.2,8.11-4.2,13.05a2.48,2.48,0,0,0,.2,1.23l.53,1.06"/><rect class="cls-1" x="70.5" width="170" height="50"/><g class="cls-4"><g class="cls-4"><path class="cls-2" d="M79.9,33V17.79a31.9,31.9,0,0,1,4.61-.34c3.25,0,5.94.59,5.94,4.5,0,3.06-1.6,4.19-4,4.5L90.26,33H88.74L85,26.54h-.35c-.86,0-2.71-.07-3.49-.11V33Zm1.3-7.72a30.73,30.73,0,0,0,3.31.15c3,0,4.64-.72,4.64-3.49,0-2.44-1.23-3.39-4.56-3.39a27.9,27.9,0,0,0-3.39.23Z"/></g><g class="cls-4"><path class="cls-2" d="M93,27.11c0-4.27,1.28-6,5.12-6s5,2,5,5.12c0,.35,0,.85,0,1.21a56.61,56.61,0,0,1-5.77.55l-3.08.13c.22,2.46.77,4,4.19,4a27.82,27.82,0,0,0,4.13-.35l.12,1.06a28.45,28.45,0,0,1-4.87.38C94.06,33.16,93,30.6,93,27.11Zm4.64-.21c1.1,0,3-.2,4.24-.35,0-.27,0-.65,0-.94,0-2.08-1-3.47-3.78-3.47-3.15,0-3.89,1.51-3.89,4.92Z"/></g><g class="cls-4"><path class="cls-2" d="M106.08,16.69h1.23V29.84a4.74,4.74,0,0,0,1,3.12l-1,.56A5,5,0,0,1,106.08,30Z"/></g><g class="cls-4"><path class="cls-2" d="M110.51,27.11c0-4.27,1.28-6,5.12-6s5,2,5,5.12c0,.35,0,.85,0,1.21a56.61,56.61,0,0,1-5.77.55l-3.08.13c.22,2.46.77,4,4.19,4a27.82,27.82,0,0,0,4.13-.35l.12,1.06a28.45,28.45,0,0,1-4.87.38C111.53,33.16,110.51,30.6,110.51,27.11Zm4.64-.21c1.1,0,3-.2,4.24-.35,0-.27,0-.65,0-.94,0-2.08-1-3.47-3.78-3.47-3.15,0-3.89,1.51-3.89,4.92Z"/></g><g class="cls-4"><path class="cls-2" d="M123.8,21.48a25.65,25.65,0,0,1,4.31-.41c2.47,0,4.39.62,4.39,3.52V30.3c0,.65,0,1.33-.05,1.95a11.24,11.24,0,0,1-4.78.91c-3.14,0-4.65-.85-4.65-3.46,0-2,.85-3.32,2.88-3.62a50.73,50.73,0,0,1,5.38-.37V25c0-2-.63-2.83-3.49-2.83a27.29,27.29,0,0,0-3.87.35Zm4,10.61a10,10,0,0,0,3.48-.59c0-.59,0-1.39,0-2v-2.8a35,35,0,0,0-5,.33c-1.38.27-2,.87-2,2.59C124.26,31.61,125.26,32.09,127.76,32.09Z"/><path class="cls-2" d="M136.68,24c0,1.72,1.12,1.87,3.09,2.47,2.52.76,3.74,1.45,3.74,3.45,0,2.55-1.91,3.25-4.46,3.25a17,17,0,0,1-3.62-.36l.13-1a18.54,18.54,0,0,0,3,.26c1.57,0,3.69,0,3.69-2,0-1.56-1-1.89-3.1-2.52-1.84-.54-3.7-1-3.7-3.34s1.66-3.08,4-3.08a17.44,17.44,0,0,1,3.68.37l-.12,1a17.21,17.21,0,0,0-3-.28C138.58,22.16,136.68,22.2,136.68,24Z"/><path class="cls-2" d="M145.94,27.11c0-4.27,1.27-6,5.11-6s5,2,5,5.12c0,.35,0,.85,0,1.21a56.33,56.33,0,0,1-5.77.55l-3.08.13c.22,2.46.77,4,4.2,4a27.68,27.68,0,0,0,4.12-.35l.12,1.06a28.41,28.41,0,0,1-4.86.38C147,33.16,145.94,30.6,145.94,27.11Zm4.63-.21c1.1,0,3-.2,4.24-.35,0-.27,0-.65,0-.94,0-2.08-1-3.47-3.78-3.47-3.15,0-3.89,1.51-3.89,4.92Z"/></g><g class="cls-4"><path class="cls-2" d="M168.66,29.66v-12h2.4V31.2c0,1.37-.61,2-1.65,2s-1.71-.46-2.38-1.73l-5.56-10.52V33h-2.4V19.4c0-1.37.63-1.95,1.66-1.95s1.7.45,2.37,1.72Z"/></g><g class="cls-4"><path class="cls-2" d="M179.21,33.16c-3.85,0-5.24-1.64-5.24-6s1.39-6,5.24-6,5.24,1.72,5.24,6S183.06,33.16,179.21,33.16Zm0-2c2.13,0,2.72-.93,2.72-4.05s-.59-4-2.72-4-2.71.8-2.71,4S177.08,31.16,179.21,31.16Z"/></g><g class="cls-4"><path class="cls-2" d="M193.34,33a11.91,11.91,0,0,1-1.78.17c-2.38,0-3.39-1-3.39-3.21V23.1h-2V21.23h2V18.32l2.52-.41v3.32h2.44V23.1h-2.44v6.64c0,1.13.48,1.48,1.57,1.48.3,0,.59,0,.89,0Z"/></g><g class="cls-4"><path class="cls-2" d="M197.46,28.37c.14,2.26,1.32,2.79,3.14,2.79a34,34,0,0,0,4.22-.3l.22,1.87a30.21,30.21,0,0,1-5.09.43c-3.94,0-5-2.56-5-6,0-4.27,1.32-6,5.24-6,4.24,0,5.14,2.24,5.14,5.75a8.63,8.63,0,0,1,0,.87c-1.35.24-4.16.51-5.78.59Zm2.3-1.83c.87,0,2.23-.15,3-.26a5.07,5.07,0,0,0,0-.55c0-1.79-.66-2.77-2.62-2.77-2.48,0-2.81,1.57-2.81,3.7Z"/><path class="cls-2" d="M213.67,29.78c0-1.35-1.21-1.46-2.31-1.79-1.89-.58-3.69-1.06-3.69-3.59s1.82-3.33,4.15-3.33a17.22,17.22,0,0,1,4.18.46l-.23,1.84a16.16,16.16,0,0,0-2.94-.31c-1,0-2.65,0-2.65,1.2s1.42,1.45,2.4,1.78c2,.68,3.64,1.06,3.64,3.65s-2,3.47-4.59,3.47a18.45,18.45,0,0,1-4.06-.46l.23-1.89a19.45,19.45,0,0,0,3.14.33C211.87,31.14,213.67,31.17,213.67,29.78Z"/></g></g></g></g></g></g></svg>