<svg xmlns="http://www.w3.org/2000/svg" viewBox="0 0 240.5 50"><defs><style>.cls-1{fill:#00aeff;}.cls-2{fill:#fff;}.cls-3{fill:#384655;}</style></defs><title>Asset 11</title><g id="Layer_2" data-name="Layer 2"><g id="Layer_1-2" data-name="Layer 1"><rect class="cls-1" width="49.73" height="50"/><path class="cls-2" d="M25,41.22a7.83,7.83,0,0,1-2.64-2.11,9.08,9.08,0,0,1-1.76-3.18,13.42,13.42,0,0,1-.71-3.88c0-8.11,6.7-12.34,6-20.45a3.8,3.8,0,0,0-.18-1.41c-.35-.35-.53-.71-.71-.88a7.87,7.87,0,0,1,2.65,2.11,9.34,9.34,0,0,1,1.76,3.18,13.83,13.83,0,0,1,.71,3.88c0,6.87-6.35,12-6.35,19.39a6.52,6.52,0,0,0,.35,1.94A2.42,2.42,0,0,0,25,41.22"/><path class="cls-2" d="M31,40.87a6.59,6.59,0,0,1-1.76-1.41,6.48,6.48,0,0,1-1.59-4.76c0-5.47,4.94-8.46,4.23-15.34a15.14,15.14,0,0,1,2.29,3.53c0,.7.18,1.58.18,2.46,0,4.59-4.23,8.12-4.23,13a2.74,2.74,0,0,0,.17,1.24A2.87,2.87,0,0,0,31,40.87"/><path class="cls-2" d="M18.51,31.7a6.75,6.75,0,0,1-1.76-1.41,6,6,0,0,1-1.24-2.11,12.5,12.5,0,0,1-.35-2.65c0-5.47,4.94-8.46,4.23-15.34a15.14,15.14,0,0,1,2.29,3.53A11.69,11.69,0,0,1,22,16.36C22,21,17.8,24.47,17.8,29.41A2.54,2.54,0,0,0,18,30.64l.53,1.06"/><rect class="cls-3" x="48.5" width="192" height="50"/><path class="cls-2" d="M79.86,33V17.81a30.52,30.52,0,0,1,4.69-.36c3.27,0,6,.61,6,4.56,0,3-1.5,4.17-3.79,4.53L90.53,33h-2L85,26.68h-.24c-.84,0-2.42-.06-3.18-.1V33Zm1.69-7.85a26.2,26.2,0,0,0,3,.14c2.73,0,4.3-.67,4.3-3.28,0-2.29-1.13-3.18-4.22-3.18a25.51,25.51,0,0,0-3.08.2Z"/><path class="cls-2" d="M93,27.11c0-4.27,1.29-6,5.15-6s5.06,2.09,5.06,5.3c0,.33,0,.77,0,1.12-1.35.22-4.14.49-5.78.55l-2.79.12c.2,2.41.92,3.64,3.89,3.64a29.75,29.75,0,0,0,4.16-.33l.14,1.3a29.87,29.87,0,0,1-4.93.39C94,33.16,93,30.6,93,27.11Zm4.68-.31c1-.05,2.8-.19,3.89-.33,0-.24,0-.58,0-.82,0-2-.87-3.27-3.44-3.27-3,0-3.58,1.52-3.58,4.56Z"/><path class="cls-2" d="M106,16.69h1.6V29.84a4.46,4.46,0,0,0,1,3l-1.36.7A5,5,0,0,1,106,30Z"/><path class="cls-2" d="M110.67,27.11c0-4.27,1.29-6,5.15-6s5.06,2.09,5.06,5.3c0,.33,0,.77,0,1.12-1.35.22-4.14.49-5.78.55l-2.79.12c.2,2.41.93,3.64,3.89,3.64a29.62,29.62,0,0,0,4.16-.33l.14,1.3a29.77,29.77,0,0,1-4.93.39C111.69,33.16,110.67,30.6,110.67,27.11Zm4.68-.31c1-.05,2.8-.19,3.89-.33,0-.24,0-.58,0-.82,0-2-.87-3.27-3.44-3.27-3,0-3.58,1.52-3.58,4.56Z"/><path class="cls-2" d="M123.88,21.48a26.76,26.76,0,0,1,4.38-.41c2.5,0,4.48.65,4.48,3.58v5.56c0,.68,0,1.36-.06,2a11,11,0,0,1-4.92.95c-3.15,0-4.58-1-4.58-3.52,0-2,.86-3.33,3-3.64a45.62,45.62,0,0,1,5-.35v-.52c0-1.92-.65-2.71-3.2-2.71a27.52,27.52,0,0,0-3.93.33Zm4.05,10.37a8.83,8.83,0,0,0,3.19-.53c0-.56,0-1.29,0-1.85V26.86a28.14,28.14,0,0,0-4.46.31c-1.34.27-1.93.81-1.93,2.43C124.77,31.41,125.72,31.85,127.93,31.85Z"/><path class="cls-2" d="M137.16,24.07c0,1.58,1.21,1.75,2.9,2.27,2.37.73,3.71,1.33,3.71,3.51,0,2.59-1.93,3.31-4.5,3.31a17.47,17.47,0,0,1-3.74-.39l.15-1.26a19.28,19.28,0,0,0,3,.27c1.38,0,3.42,0,3.42-1.84,0-1.49-1-1.76-2.88-2.3s-3.69-1-3.69-3.41,1.7-3.16,4.07-3.16a18.18,18.18,0,0,1,3.83.39l-.16,1.25a16.36,16.36,0,0,0-2.94-.29C139,22.42,137.16,22.46,137.16,24.07Z"/><path class="cls-2" d="M146.11,27.11c0-4.27,1.28-6,5.15-6s5.06,2.09,5.06,5.3c0,.33,0,.77,0,1.12-1.35.22-4.14.49-5.78.55l-2.79.12c.2,2.41.92,3.64,3.89,3.64a29.75,29.75,0,0,0,4.16-.33l.14,1.3a29.87,29.87,0,0,1-4.93.39C147.13,33.16,146.11,30.6,146.11,27.11Zm4.68-.31c1-.05,2.8-.19,3.89-.33,0-.24,0-.58,0-.82,0-2-.87-3.27-3.44-3.27-3,0-3.58,1.52-3.58,4.56Z"/><path class="cls-2" d="M168.87,29.66v-12h2.4V31.2c0,1.37-.61,2-1.65,2s-1.71-.46-2.38-1.73l-5.56-10.52V33h-2.4V19.4c0-1.37.63-1.95,1.65-1.95a2.59,2.59,0,0,1,2.38,1.72Z"/><path class="cls-2" d="M179.41,33.16c-3.85,0-5.24-1.64-5.24-6s1.39-6,5.24-6,5.24,1.72,5.24,6S183.26,33.16,179.41,33.16Zm0-2c2.13,0,2.72-.93,2.72-4.05s-.59-4-2.72-4-2.71.8-2.71,4S177.29,31.16,179.41,31.16Z"/><path class="cls-2" d="M193.54,33a11.78,11.78,0,0,1-1.77.17c-2.39,0-3.4-1-3.4-3.21V23.1h-2V21.23h2V18.32l2.52-.41v3.32h2.44V23.1h-2.44v6.64c0,1.13.48,1.48,1.57,1.48.31,0,.6,0,.89,0Z"/><path class="cls-2" d="M197.67,28.37c.13,2.26,1.32,2.79,3.14,2.79a34,34,0,0,0,4.22-.3l.22,1.87a30.21,30.21,0,0,1-5.09.43c-3.94,0-5-2.56-5-6,0-4.27,1.32-6,5.24-6,4.24,0,5.14,2.24,5.14,5.75a8.63,8.63,0,0,1,0,.87c-1.35.24-4.16.51-5.78.59Zm2.3-1.83c.87,0,2.23-.15,3-.26a5.07,5.07,0,0,0,0-.55c0-1.79-.66-2.77-2.62-2.77-2.48,0-2.81,1.57-2.81,3.7Z"/><path class="cls-2" d="M213.88,29.78c0-1.35-1.21-1.46-2.31-1.79-1.89-.58-3.69-1.06-3.69-3.59s1.82-3.33,4.15-3.33a17.22,17.22,0,0,1,4.18.46L216,23.37a16.16,16.16,0,0,0-2.94-.31c-1,0-2.65,0-2.65,1.2s1.42,1.45,2.4,1.78c2,.68,3.64,1.06,3.64,3.65s-2,3.47-4.59,3.47a18.45,18.45,0,0,1-4.06-.46l.23-1.89a19.45,19.45,0,0,0,3.14.33C212.08,31.14,213.88,31.17,213.88,29.78Z"/></g></g></svg>